<svg width="24" height="24" viewBox="0 0 24 24" fill="none" xmlns="http://www.w3.org/2000/svg">
<path d="M14.4014 2C14.2992 2.48651 14.2461 2.99092 14.2461 3.50781C14.2461 4.75397 14.5578 5.92785 15.1084 6.9541C15.2713 7.25772 15.4555 7.54825 15.6582 7.82422C17.2177 9.94715 19.8594 11.5406 19.8594 14.1748C19.8593 16.3421 18.9814 18.3038 17.5625 19.7256C17.5957 19.5121 17.6142 19.2952 17.6143 19.0762C17.6143 17.5949 16.9494 16.0868 15.6914 14.7148C15.1213 14.0907 14.3833 13.5139 13.6846 13.0518C12.9859 13.5138 12.2478 14.0908 11.6777 14.7148C10.4198 16.0868 9.75488 17.5949 9.75488 19.0762C9.75494 20.1554 10.1663 21.1904 10.8994 21.9551C7.08008 21.4197 4.14074 18.1417 4.14062 14.1748C4.14062 8.06606 8.57559 2.99289 14.4014 2Z" fill="black"/>
</svg>
