<svg width="24" height="24" viewBox="0 0 24 24" fill="none" xmlns="http://www.w3.org/2000/svg">
<path d="M17.0007 1.20825C17.8604 2.8203 19.1803 4.14016 20.7923 4.99992C19.1803 5.85968 17.8604 7.17955 17.0007 8.79159C16.1409 7.17957 14.821 5.85968 13.209 4.99992C14.821 4.14016 16.1409 2.82027 17.0007 1.20825ZM8.00065 4.33325L8.94862 6.11071C10.069 8.2115 11.7891 9.93152 13.8898 11.0519L15.6673 11.9999L13.8898 12.9479C11.789 14.0683 10.069 15.7883 8.94865 17.8891L8.00065 19.6666L7.05263 17.8891C5.93223 15.7883 4.21226 14.0683 2.11152 12.9479L0.333984 11.9999L2.11146 11.0519C4.21224 9.93151 5.93224 8.21151 7.05266 6.11074L8.00065 4.33325ZM22.7923 17.9999C20.7551 16.9134 19.0872 15.2455 18.0007 13.2083C16.9142 15.2455 15.2462 16.9134 13.209 17.9999C15.2462 19.0864 16.9142 20.7544 18.0007 22.7916C19.0872 20.7544 20.7551 19.0864 22.7923 17.9999Z" fill="black"/>
</svg>
